<svg id="Capa_1" enable-background="new 0 0 512 512" height="512" viewBox="0 0 512 512" width="512" xmlns="http://www.w3.org/2000/svg"><g><path d="m512 225.28c0-66.921-54.272-121.365-120.983-121.365h-8.753v-6.928c0-53.457-43.355-96.948-96.644-96.948-.001 0 .001 0-.001 0-25.813 0-50.083 10.085-68.337 28.395-18.254 18.311-28.306 42.657-28.306 68.552v.533c-6.275-1.21-12.676-1.82-19.167-1.82-55.773 0-101.146 45.517-101.146 101.464 0 2.849.121 5.695.36 8.532-38.173.666-69.023 32.022-69.023 70.47 0 38.863 31.518 70.48 70.258 70.48h163.169c-1.48 8.162-2.258 16.567-2.258 25.151 0 77.287 62.68 140.165 139.724 140.165s139.725-62.877 139.725-140.165c0-27.604-8-53.368-21.791-75.088 15.011-20.665 23.173-45.616 23.173-71.428zm-441.742 91.365c-22.25 0-40.353-18.159-40.353-40.48s18.102-40.48 40.353-40.48h36.369s-8.06-18.413-8.06-38.521c0-39.405 31.958-71.464 71.24-71.464 9.781 0 19.266 1.96 28.194 5.826l20.879 9.04v-43.579c0-17.882 6.942-34.694 19.547-47.339 12.606-12.645 29.365-19.608 47.191-19.608 36.799 0 66.738 30.033 66.738 66.948v36.928h38.659c50.22 0 91.078 40.986 91.078 91.365 0 16.675-4.528 32.868-12.95 46.958-25.26-25.088-59.981-40.607-98.251-40.607-57.535 0-107.053 35.068-128.445 85.013zm315.588 164.29v-27.069h-29.906v27.069c-48.639-6.672-87.234-45.41-93.853-94.212h26.921v-30h-26.901c6.677-48.734 45.242-87.401 93.833-94.067v26.924h29.906v-26.924c48.591 6.666 87.157 45.333 93.834 94.067h-26.901v30h26.921c-6.619 48.803-45.215 87.54-93.854 94.212z"/><path d="m385.846 317.24h-29.905v69.477h53.657v-30h-23.752z"/></g></svg>