<svg id="Capa_1" enable-background="new 0 0 512 512" height="512" viewBox="0 0 512 512" width="512" xmlns="http://www.w3.org/2000/svg"><g><g><g><path d="m464.703 41.705h-229.228c-22.25 0-41.648 15.715-46.263 37.419-.81 3.81 1.229 7.785 4.935 8.985 4.336 1.403 8.799-1.287 9.687-5.624 3.057-14.938 16.364-25.78 31.642-25.78h229.229c17.837 0 32.297 14.46 32.297 32.297v185.866c0 17.837-14.46 32.297-32.297 32.297h-3.765c-8.121 0-14.255 7.348-12.818 15.333l8.077 44.85-59.101-56.08c-2.816-2.672-7.204-2.761-10.126-.204-3.333 2.916-3.436 8.067-.222 11.114l66.193 62.762c3.671 3.484 9.185 4.282 13.733 1.827 4.504-2.43 6.92-7.446 6.013-12.482l-9.387-52.12h1.403c26.121 0 47.297-21.176 47.297-47.297v-185.866c-.002-26.122-21.178-47.297-47.299-47.297z"/></g></g><g><path d="m310.468 108.671h-258.15c-28.848 0-52.318 23.469-52.318 52.318v182.635c0 28.849 23.47 52.318 52.318 52.318h2.711l-10.771 59.809c-.949 5.268 1.579 10.515 6.289 13.057 4.767 2.574 10.533 1.727 14.366-1.911l72.712-69.023c1.312-1.245 3.03-1.931 4.838-1.931h168.005c28.849 0 52.318-23.47 52.318-52.318v-182.636c0-28.849-23.47-52.318-52.318-52.318zm37.318 234.953c0 20.577-16.741 37.318-37.318 37.318h-168.005c-5.668 0-11.053 2.149-15.165 6.052l-66.843 63.452 9.608-53.351c1.516-8.424-4.961-16.153-13.504-16.153h-4.24c-20.578 0-37.319-16.741-37.319-37.318v-182.635c0-20.577 16.741-37.318 37.318-37.318h258.149c20.577 0 37.318 16.741 37.318 37.318v182.635z"/><path d="m259.495 231.029c-13.961-46.261-62.991-72.088-109.067-57.419-43.622 13.886-69.061 60.027-57.407 104.338 10.131 38.524 44.239 63.53 81.266 64.555.071.002.141.003.211.003 4.046 0 7.381-3.223 7.493-7.293.115-4.141-3.149-7.59-7.29-7.704-30.561-.846-58.787-21.48-67.174-53.375-9.612-36.547 11.404-74.756 47.45-86.23 38.169-12.152 78.557 9.303 90.115 47.319 3.893 14.673 1.827 27.502-3.838 41.744-1.413 3.553-7.07 15.144-20.55 15.144-4.779 0-9.853-5.143-9.819-12 .05-10.156.301-60.182.343-69.299.021-4.143-3.321-7.517-7.463-7.537-.013 0-.025 0-.038 0-4.124 0-7.479 3.334-7.499 7.463l-.034 6.926c-6.29-5.577-14.244-8.77-23.193-8.77-19.936 0-40.557 17.309-40.557 46.273 0 26.441 17.817 47.953 39.717 47.953 10.056 0 19.101-4.512 25.934-12.017 3.888 9.278 12.533 16.007 22.61 16.007 34.288 0 47.187-44.639 38.857-75.848-.021-.078-.043-.156-.067-.233zm-63.495 25.719c-.684 17.458-11.114 31.371-23.84 31.371-11.887 0-24.717-12.599-24.717-32.953 0-19.575 12.994-31.273 25.557-31.273 13.227 0 22.56 12.137 23.016 29.682z"/></g></g></svg>