<svg id="Capa_1" enable-background="new 0 0 512 512" height="512" viewBox="0 0 512 512" width="512" xmlns="http://www.w3.org/2000/svg"><g><path d="m492.804 198.276c0-32.598-12.693-63.244-35.741-86.292l-76.242-76.242c-23.049-23.049-53.694-35.742-86.291-35.742h-.001-137.534c-4.143 0-7.5 3.358-7.5 7.5s3.357 7.5 7.5 7.5h120.666c31.326 0 56.812 25.486 56.812 56.812v39.143c0 26.124 21.253 47.377 47.377 47.377h39.143c31.262 0 56.703 25.382 56.808 56.62v249.668c0 17.854-14.521 32.38-32.37 32.38h-327.6c-14.774 0-27.525-9.841-31.287-24.034l-.321-46.263h243.247c33.018 0 59.88-26.862 59.88-59.88v-16.214c0-4.142-3.357-7.5-7.5-7.5s-7.5 3.358-7.5 7.5v16.214c0 24.747-20.133 44.88-44.88 44.88h-268.855c-14.567 0-26.419-11.852-26.419-26.419v-162.331c7.175 5.958 16.385 9.546 26.419 9.546h268.854c24.747 0 44.88 20.133 44.88 44.88v43.229c0 4.142 3.357 7.5 7.5 7.5s7.5-3.358 7.5-7.5v-43.229c0-33.018-26.862-59.88-59.88-59.88h-244.01v-170.119c0-17.854 14.521-32.38 32.37-32.38h9.171c4.143 0 7.5-3.358 7.5-7.5s-3.358-7.5-7.5-7.5h-9.17c-26.12 0-47.37 21.255-47.37 47.38v102.281h-9.845c-22.839 0-41.419 18.581-41.419 41.419v194.204c0 22.839 18.58 41.419 41.419 41.419h10.606l.328 47.269c.004.57.073 1.137.205 1.691 5.112 21.395 24.059 36.337 46.076 36.337h327.6c26.12 0 47.37-21.255 47.37-47.38zm-432.189-33.615h9.845v52.838h-9.845c-14.567 0-26.419-11.852-26.419-26.419s11.851-26.419 26.419-26.419zm360.377-21.329h-39.143c-17.853 0-32.377-14.524-32.377-32.377v-39.143c0-20.268-8.438-38.599-21.987-51.669 15.941 5.136 30.545 14.021 42.729 26.205l76.242 76.242c12.185 12.184 21.069 26.788 26.205 42.729-13.07-13.549-31.402-21.987-51.669-21.987z"/><path d="m321.254 281.773c4.143 0 7.5-3.358 7.5-7.5s-3.357-7.5-7.5-7.5h-38.667c-4.143 0-7.5 3.358-7.5 7.5v95.405c0 4.142 3.357 7.5 7.5 7.5s7.5-3.358 7.5-7.5v-41.106h28.096c4.143 0 7.5-3.358 7.5-7.5s-3.357-7.5-7.5-7.5h-28.096v-31.799z"/><path d="m184.246 266.773c-1.991 0-3.901.792-5.309 2.202-1.406 1.41-2.195 3.321-2.191 5.313v.082.003 93.756c0 .584.073 1.15.2 1.695.038 1.946.827 3.804 2.209 5.177 1.405 1.395 3.305 2.177 5.284 2.177h.028c.815-.003 20.053-.077 27.721-.211 13.31-.232 25.16-6.262 33.371-16.977 7.566-9.876 11.734-23.376 11.734-38.014 0-33.018-18.497-55.202-46.027-55.202h-27.02zm58.047 55.203c0 23.235-12.487 39.681-30.367 39.993-4.561.08-13.549.139-20.013.174-.037-10.943-.099-30.975-.099-40.272 0-7.781-.035-28.76-.056-40.097h19.507c15.001-.001 31.028 10.561 31.028 40.202z"/><path d="m102.582 266.07c-1.993 0-3.904.793-5.312 2.205-1.398 1.402-2.182 3.3-2.187 5.279 0 .006-.002.011-.002.016v96.108c0 4.142 3.357 7.5 7.5 7.5s7.5-3.358 7.5-7.5v-34.288c6.224-.034 14.857-.077 19.261-.077 19.383 0 35.152-15.531 35.152-34.622s-15.77-34.622-35.152-34.622h-26.76zm46.913 34.622c0 10.636-9.229 19.622-20.152 19.622-4.38 0-12.893.042-19.117.076-.034-6.391-.077-15.229-.077-19.698 0-3.77-.024-12.975-.044-19.622h19.238c10.923 0 20.152 8.985 20.152 19.622z"/></g></svg>