<?xml version="1.0" encoding="utf-8"?>
<!-- Generator: Adobe Illustrator 22.1.0, SVG Export Plug-In . SVG Version: 6.00 Build 0)  -->
<svg version="1.1" id="Layer_1" xmlns="http://www.w3.org/2000/svg" xmlns:xlink="http://www.w3.org/1999/xlink" x="0px" y="0px"
	 viewBox="0 0 188.9 275.3" style="enable-background:new 0 0 188.9 275.3;" xml:space="preserve">
<style type="text/css">
	.st0{fill:none;stroke:#000000;}
	.st1{fill:none;stroke:#000000;stroke-width:0.9264;}
	.st2{enable-background:new    ;}
	.st3{fill:#191919;}
</style>
<g>
	<g id="g1049" transform="translate(-18.167407,-16.869735)">
		<path id="rect98" class="st0" d="M26.8,17.4h171.6c4.5,0,8.1,3.6,8.1,8.1v258c0,4.5-3.6,8.1-8.1,8.1H26.8c-4.5,0-8.1-3.6-8.1-8.1
			v-258C18.7,21,22.3,17.4,26.8,17.4z"/>
		<g>
			<path id="path923" class="st1" d="M183.8,156.1H37.5l0,0"/>
			<path id="path923-1" class="st1" d="M183.8,141.9H37.5l0,0"/>
			<path id="path923-5" class="st1" d="M183.8,71.1H37.5l0,0"/>
			<path id="path923-1-9" class="st1" d="M183.8,56.9H37.5l0,0"/>
			<path id="path923-7" class="st1" d="M183.8,99.4H37.5l0,0"/>
			<path id="path923-1-3" class="st1" d="M183.8,85.3H37.5l0,0"/>
			<path id="path923-5-5" class="st1" d="M183.8,127.8H37.5l0,0"/>
			<path id="path923-1-9-9" class="st1" d="M183.8,113.6H37.5l0,0"/>
			<path id="path923-0" class="st1" d="M183.8,212.8H37.5l0,0"/>
			<path id="path923-1-8" class="st1" d="M183.8,198.6H37.5l0,0"/>
			<path id="path923-5-5-1" class="st1" d="M183.8,184.5H37.5l0,0"/>
			<path id="path923-1-9-9-1" class="st1" d="M183.8,170.3H37.5l0,0"/>
			<path id="path923-0-6" class="st1" d="M122.5,255.3h-85l0,0"/>
			<path id="path923-1-8-1" class="st1" d="M122.5,241.2h-85l0,0"/>
			<path id="path923-5-5-1-7" class="st1" d="M122.5,227h-85l0,0"/>
			<g class="st2">
			</g>
		</g>
	</g>
	<path id="path122_5_" class="st3" d="M0.3,114.5"/>
	<path id="path122_1_" class="st3" d="M0.3,58.9"/>
</g>
<g>
</g>
<g>
</g>
<g>
</g>
<g>
</g>
<g>
</g>
<g>
</g>
<g>
</g>
<g>
</g>
<g>
</g>
<g>
</g>
<g>
</g>
<g>
</g>
<g>
</g>
<g>
</g>
<g>
</g>
</svg>
